<svg xmlns="http://www.w3.org/2000/svg" width="16" height="16" fill="none" viewBox="0 0 16 16">
  <path fill="#000" d="m12 6.509-.75-.001v.7l.697.049.053-.748Zm-8 0 .053.748.698-.05-.001-.699H4Zm.25 6.241A2.75 2.75 0 0 1 1.5 10H0a4.25 4.25 0 0 0 4.25 4.25v-1.5Zm7.5 0h-7.5v1.5h7.5v-1.5ZM14.5 10a2.75 2.75 0 0 1-2.75 2.75v1.5A4.25 4.25 0 0 0 16 10h-1.5Zm-2.553-2.743A2.75 2.75 0 0 1 14.5 10H16a4.25 4.25 0 0 0-3.947-4.24l-.106 1.497Zm-.697-.758v.009l1.5.002V6.5h-1.5ZM8 3.25a3.25 3.25 0 0 1 3.25 3.25h1.5A4.75 4.75 0 0 0 8 1.75v1.5ZM4.75 6.5A3.25 3.25 0 0 1 8 3.25v-1.5A4.75 4.75 0 0 0 3.25 6.5h1.5Zm0 .008V6.5h-1.5v.01l1.5-.002ZM1.5 10a2.75 2.75 0 0 1 2.553-2.743L3.947 5.76A4.25 4.25 0 0 0 0 10h1.5Z"/>
</svg>
